<?xml version="1.0" standalone="no"?>
<!DOCTYPE svg PUBLIC "-//W3C//DTD SVG 20010904//EN"
 "http://www.w3.org/TR/2001/REC-SVG-20010904/DTD/svg10.dtd">
<svg version="1.0" xmlns="http://www.w3.org/2000/svg"
 width="1249.000000pt" height="1249.000000pt" viewBox="0 0 1249.000000 1249.000000"
 preserveAspectRatio="xMidYMid meet">
<metadata>
Created by potrace 1.14, written by Peter Selinger 2001-2017
</metadata>
<g transform="translate(0.000000,1249.000000) scale(0.100000,-0.100000)"
fill="#000000" stroke="none">
<path d="M5950 12474 c-424 -25 -796 -80 -1195 -179 -2233 -552 -4008 -2327
-4560 -4560 -82 -331 -127 -597 -161 -950 -25 -253 -25 -847 0 -1100 77 -794
267 -1478 602 -2165 542 -1110 1370 -2011 2440 -2656 194 -116 645 -341 849
-422 585 -233 1144 -369 1764 -427 226 -21 901 -21 1131 0 636 59 1226 205
1835 455 171 71 564 267 740 370 1441 845 2490 2230 2909 3840 78 300 141 664
171 990 21 230 21 905 0 1131 -58 620 -194 1179 -427 1764 -81 204 -306 655
-422 849 -646 1072 -1544 1897 -2657 2440 -694 339 -1408 535 -2204 606 -122
11 -696 21 -815 14z m-809 -2510 l24 -26 3 -554 2 -554 2064 0 c2017 0 2064 0
2087 -19 l24 -19 3 -710 2 -710 -24 -29 -24 -28 -2066 -3 -2065 -2 -3 -555
c-3 -539 -4 -555 -23 -574 -11 -12 -35 -24 -54 -27 -33 -7 -36 -4 -982 942
-835 835 -949 953 -949 979 0 26 113 143 943 972 898 898 944 943 978 943 25
0 42 -7 60 -26z m3261 -4592 c833 -833 948 -951 948 -977 0 -26 -114 -144
-942 -972 -885 -886 -945 -943 -977 -943 -22 0 -43 8 -58 22 l-23 21 0 559 0
558 -2069 0 c-2022 0 -2069 0 -2092 19 l-24 19 -3 710 -2 710 24 29 24 28
2071 3 2071 2 0 551 c0 370 3 557 11 570 11 22 42 37 74 38 13 1 324 -303 967
-947z"/>
</g>
</svg>
